ffmpeg started on 2026-01-18 at 20:31:57
Report written to "C:\Dev\OSPanel\domains\Java-AT\modules\ffmpeg\FFMetrics\reports\psnr_report-6.txt"
Log level: 32
Command line:
ffmpeg -hide_banner -nostdin -r 24000/1001 -i "F:\\Convert\\files\\[DC] Make Heroine ga Oosugiru - 07_Telegram_HEVC(163).mkv" -r 24000/1001 -i "F:\\Convert\\files\\[DC] Make Heroine ga Oosugiru - 07_Telegram.mp4" -lavfi "[0:v]settb=AVTB,setpts=PTS-STARTPTS,format=pix_fmts=yuv420p10le,fps=24000/1001,scale=1920:1080:flags=lanczos:param0=3:out_range=limited:out_color_matrix=bt709:out_chroma_loc=left,setsar=1/1,setdar=(1920/1080)*(1/1),colorspace=format=yuv420p10:range=tv:primaries=bt709:trc=bt709:space=bt709:fast=0[main];[1:v]settb=AVTB,setpts=PTS-STARTPTS,format=pix_fmts=yuv420p,fps=24000/1001,scale=1920:1080:flags=lanczos:param0=3:out_range=limited:out_color_matrix=bt709:out_chroma_loc=left,setsar=1.000,setdar=1.778,colorspace=format=yuv420p:range=tv:primaries=bt709:trc=bt709:space=bt709:fast=0[ref];[main][ref]psnr=eof_action=endall:stats_file='C\\:/Dev/OSPanel/domains/Java-AT/modules/ffmpeg/FFMetrics/logs/psnr_logfile-6.txt'" -f null -
Input #0, matroska,webm, from 'F:\Convert\files\[DC] Make Heroine ga Oosugiru - 07_Telegram_HEVC(163).mkv':
  Metadata:
    COMPATIBLE_BRANDS: isomiso2avc1mp41
    MAJOR_BRAND     : isom
    MINOR_VERSION   : 512
    ENCODER         : Lavf61.7.100
  Duration: 00:24:06.79, start: -0.021000, bitrate: 989 kb/s
  Stream #0:0: Video: hevc (Main 10), yuv420p10le(tv, bt709, progressive), 1920x1080 [SAR 1:1 DAR 16:9], 23.98 fps, 23.98 tbr, 1k tbn (default)
      Metadata:
        HANDLER_NAME    : VideoHandler
        VENDOR_ID       : [0][0][0][0]
        ENCODER         : Lavc61.19.100 libx265
        BPS             : 792662
        DURATION        : 00:24:06.569708333
        NUMBER_OF_FRAMES: 34683
        NUMBER_OF_BYTES : 143330136
        _STATISTICS_WRITING_APP: mkvpropedit v94.0 ('Initiate') 64-bit
        _STATISTICS_WRITING_DATE_UTC: 2026-01-18 10:16:27
        _STATISTICS_TAGS: BPS DURATION NUMBER_OF_FRAMES NUMBER_OF_BYTES
  Stream #0:1: Audio: aac (LC), 48000 Hz, stereo, fltp (default)
      Metadata:
        HANDLER_NAME    : SoundHandler
        VENDOR_ID       : [0][0][0][0]
        ENCODER         : Lavc61.19.100 aac
        BPS             : 193194
        DURATION        : 00:24:06.784000000
        NUMBER_OF_FRAMES: 67819
        NUMBER_OF_BYTES : 34938755
        _STATISTICS_WRITING_APP: mkvpropedit v94.0 ('Initiate') 64-bit
        _STATISTICS_WRITING_DATE_UTC: 2026-01-18 10:16:27
        _STATISTICS_TAGS: BPS DURATION NUMBER_OF_FRAMES NUMBER_OF_BYTES
Input #1, mov,mp4,m4a,3gp,3g2,mj2, from 'F:\Convert\files\[DC] Make Heroine ga Oosugiru - 07_Telegram.mp4':
  Metadata:
    major_brand     : isom
    minor_version   : 512
    compatible_brands: isomiso2avc1mp41
    encoder         : Lavf60.16.100
  Duration: 00:24:06.74, start: 0.000000, bitrate: 3764 kb/s
  Stream #1:0[0x1](und): Video: h264 (High) (avc1 / 0x31637661), yuv420p(tv, bt709, progressive), 1920x1080 [SAR 1:1 DAR 16:9], 3616 kb/s, 23.98 fps, 23.98 tbr, 24k tbn (default)
      Metadata:
        handler_name    : VideoHandler
        vendor_id       : [0][0][0][0]
        encoder         : Lavc60.31.102 h264_qsv
  Stream #1:1[0x2](und): Audio: aac (HE-AACv2) (mp4a / 0x6134706D), 48000 Hz, stereo, fltp, 144 kb/s (default)
      Metadata:
        handler_name    : SoundHandler
        vendor_id       : [0][0][0][0]
Stream mapping:
  Stream #0:0 (hevc) -> settb:default
  Stream #1:0 (h264) -> settb:default
  psnr:default -> Stream #0:0 (wrapped_avframe)
  Stream #0:1 -> #0:1 (aac (native) -> pcm_s16le (native))
Output #0, null, to 'pipe:':
  Metadata:
    COMPATIBLE_BRANDS: isomiso2avc1mp41
    MAJOR_BRAND     : isom
    MINOR_VERSION   : 512
    encoder         : Lavf61.7.100
  Stream #0:0: Video: wrapped_avframe, yuv420p10le(tv, bt709, progressive), 1920x1080 [SAR 1:1 DAR 16:9], q=2-31, 200 kb/s, 23.98 fps, 23.98 tbn
      Metadata:
        encoder         : Lavc61.19.100 wrapped_avframe
  Stream #0:1: Audio: pcm_s16le, 48000 Hz, stereo, s16, 1536 kb/s (default)
      Metadata:
        HANDLER_NAME    : SoundHandler
        VENDOR_ID       : [0][0][0][0]
        _STATISTICS_TAGS: BPS DURATION NUMBER_OF_FRAMES NUMBER_OF_BYTES
        BPS             : 193194
        DURATION        : 00:24:06.784000000
        NUMBER_OF_FRAMES: 67819
        NUMBER_OF_BYTES : 34938755
        _STATISTICS_WRITING_APP: mkvpropedit v94.0 ('Initiate') 64-bit
        _STATISTICS_WRITING_DATE_UTC: 2026-01-18 10:16:27
        encoder         : Lavc61.19.100 pcm_s16le
frame=  143 fps=0.0 q=-0.0 size=N/A time=00:00:05.96 bitrate=N/A speed=11.7x    frame=  338 fps=330 q=-0.0 size=N/A time=00:00:14.09 bitrate=N/A speed=13.8x    frame=  541 fps=353 q=-0.0 size=N/A time=00:00:22.56 bitrate=N/A speed=14.7x    frame=  748 fps=363 q=-0.0 size=N/A time=00:00:31.19 bitrate=N/A speed=15.1x    frame=  926 fps=360 q=-0.0 size=N/A time=00:00:38.62 bitrate=N/A speed=  15x    frame= 1083 fps=351 q=-0.0 size=N/A time=00:00:45.17 bitrate=N/A speed=14.6x    frame= 1241 fps=345 q=-0.0 size=N/A time=00:00:51.76 bitrate=N/A speed=14.4x    frame= 1415 fps=343 q=-0.0 size=N/A time=00:00:59.01 bitrate=N/A speed=14.3x    frame= 1557 fps=336 q=-0.0 size=N/A time=00:01:04.93 bitrate=N/A speed=  14x    frame= 1719 fps=334 q=-0.0 size=N/A time=00:01:11.69 bitrate=N/A speed=13.9x    frame= 1892 fps=334 q=-0.0 size=N/A time=00:01:18.91 bitrate=N/A speed=13.9x    frame= 2053 fps=332 q=-0.0 size=N/A time=00:01:25.62 bitrate=N/A speed=13.8x    frame= 2175 fps=325 q=-0.0 size=N/A time=00:01:30.71 bitrate=N/A speed=13.5x    frame= 2344 fps=325 q=-0.0 size=N/A time=00:01:37.76 bitrate=N/A speed=13.6x    frame= 2476 fps=321 q=-0.0 size=N/A time=00:01:43.26 bitrate=N/A speed=13.4x    frame= 2630 fps=319 q=-0.0 size=N/A time=00:01:49.69 bitrate=N/A speed=13.3x    frame= 2820 fps=322 q=-0.0 size=N/A time=00:01:57.61 bitrate=N/A speed=13.4x    frame= 3006 fps=324 q=-0.0 size=N/A time=00:02:05.37 bitrate=N/A speed=13.5x    frame= 3208 fps=328 q=-0.0 size=N/A time=00:02:13.80 bitrate=N/A speed=13.7x    frame= 3419 fps=332 q=-0.0 size=N/A time=00:02:22.60 bitrate=N/A speed=13.8x    frame= 3621 fps=335 q=-0.0 size=N/A time=00:02:31.02 bitrate=N/A speed=  14x    frame= 3823 fps=337 q=-0.0 size=N/A time=00:02:39.45 bitrate=N/A speed=14.1x    frame= 4028 fps=340 q=-0.0 size=N/A time=00:02:48.00 bitrate=N/A speed=14.2x    frame= 4245 fps=343 q=-0.0 size=N/A time=00:02:57.05 bitrate=N/A speed=14.3x    frame= 4450 fps=345 q=-0.0 size=N/A time=00:03:05.60 bitrate=N/A speed=14.4x    frame= 4652 fps=347 q=-0.0 size=N/A time=00:03:14.02 bitrate=N/A speed=14.5x    frame= 4856 fps=349 q=-0.0 size=N/A time=00:03:22.53 bitrate=N/A speed=14.6x    frame= 5066 fps=351 q=-0.0 size=N/A time=00:03:31.29 bitrate=N/A speed=14.6x    frame= 5266 fps=352 q=-0.0 size=N/A time=00:03:39.63 bitrate=N/A speed=14.7x    frame= 5474 fps=354 q=-0.0 size=N/A time=00:03:48.31 bitrate=N/A speed=14.8x    frame= 5676 fps=355 q=-0.0 size=N/A time=00:03:56.73 bitrate=N/A speed=14.8x    frame= 5878 fps=356 q=-0.0 size=N/A time=00:04:05.16 bitrate=N/A speed=14.9x    frame= 6085 fps=358 q=-0.0 size=N/A time=00:04:13.79 bitrate=N/A speed=14.9x    frame= 6291 fps=359 q=-0.0 size=N/A time=00:04:22.38 bitrate=N/A speed=  15x    frame= 6492 fps=360 q=-0.0 size=N/A time=00:04:30.77 bitrate=N/A speed=  15x    frame= 6695 fps=361 q=-0.0 size=N/A time=00:04:39.23 bitrate=N/A speed=15.1x    frame= 6903 fps=362 q=-0.0 size=N/A time=00:04:47.91 bitrate=N/A speed=15.1x    frame= 7104 fps=363 q=-0.0 size=N/A time=00:04:56.29 bitrate=N/A speed=15.1x    frame= 7305 fps=363 q=-0.0 size=N/A time=00:05:04.67 bitrate=N/A speed=15.2x    frame= 7505 fps=364 q=-0.0 size=N/A time=00:05:13.02 bitrate=N/A speed=15.2x    frame= 7703 fps=365 q=-0.0 size=N/A time=00:05:21.27 bitrate=N/A speed=15.2x    frame= 7908 fps=365 q=-0.0 size=N/A time=00:05:29.82 bitrate=N/A speed=15.2x    frame= 8109 fps=366 q=-0.0 size=N/A time=00:05:38.21 bitrate=N/A speed=15.3x    frame= 8308 fps=366 q=-0.0 size=N/A time=00:05:46.51 bitrate=N/A speed=15.3x    frame= 8507 fps=367 q=-0.0 size=N/A time=00:05:54.81 bitrate=N/A speed=15.3x    frame= 8714 fps=367 q=-0.0 size=N/A time=00:06:03.44 bitrate=N/A speed=15.3x    frame= 8915 fps=368 q=-0.0 size=N/A time=00:06:11.82 bitrate=N/A speed=15.3x    frame= 9111 fps=368 q=-0.0 size=N/A time=00:06:20.00 bitrate=N/A speed=15.4x    frame= 9320 fps=369 q=-0.0 size=N/A time=00:06:28.72 bitrate=N/A speed=15.4x    frame= 9522 fps=369 q=-0.0 size=N/A time=00:06:37.14 bitrate=N/A speed=15.4x    frame= 9730 fps=370 q=-0.0 size=N/A time=00:06:45.82 bitrate=N/A speed=15.4x    frame= 9933 fps=371 q=-0.0 size=N/A time=00:06:54.28 bitrate=N/A speed=15.5x    frame=10132 fps=371 q=-0.0 size=N/A time=00:07:02.58 bitrate=N/A speed=15.5x    frame=10336 fps=371 q=-0.0 size=N/A time=00:07:11.09 bitrate=N/A speed=15.5x    frame=10536 fps=372 q=-0.0 size=N/A time=00:07:19.43 bitrate=N/A speed=15.5x    frame=10733 fps=372 q=-0.0 size=N/A time=00:07:27.65 bitrate=N/A speed=15.5x    frame=10934 fps=372 q=-0.0 size=N/A time=00:07:36.03 bitrate=N/A speed=15.5x    frame=11134 fps=372 q=-0.0 size=N/A time=00:07:44.38 bitrate=N/A speed=15.5x    frame=11339 fps=373 q=-0.0 size=N/A time=00:07:52.93 bitrate=N/A speed=15.5x    frame=11543 fps=373 q=-0.0 size=N/A time=00:08:01.43 bitrate=N/A speed=15.6x    frame=11746 fps=374 q=-0.0 size=N/A time=00:08:09.90 bitrate=N/A speed=15.6x    frame=11948 fps=374 q=-0.0 size=N/A time=00:08:18.33 bitrate=N/A speed=15.6x    frame=12154 fps=374 q=-0.0 size=N/A time=00:08:26.92 bitrate=N/A speed=15.6x    frame=12363 fps=374 q=-0.0 size=N/A time=00:08:35.64 bitrate=N/A speed=15.6x    frame=12569 fps=375 q=-0.0 size=N/A time=00:08:44.23 bitrate=N/A speed=15.6x    frame=12765 fps=375 q=-0.0 size=N/A time=00:08:52.40 bitrate=N/A speed=15.6x    frame=12972 fps=375 q=-0.0 size=N/A time=00:09:01.04 bitrate=N/A speed=15.7x    frame=13170 fps=375 q=-0.0 size=N/A time=00:09:09.29 bitrate=N/A speed=15.7x    frame=13376 fps=376 q=-0.0 size=N/A time=00:09:17.89 bitrate=N/A speed=15.7x    frame=13574 fps=376 q=-0.0 size=N/A time=00:09:26.14 bitrate=N/A speed=15.7x    frame=13774 fps=376 q=-0.0 size=N/A time=00:09:34.49 bitrate=N/A speed=15.7x    frame=13982 fps=376 q=-0.0 size=N/A time=00:09:43.16 bitrate=N/A speed=15.7x    frame=14167 fps=376 q=-0.0 size=N/A time=00:09:50.88 bitrate=N/A speed=15.7x    frame=14371 fps=376 q=-0.0 size=N/A time=00:09:59.39 bitrate=N/A speed=15.7x    frame=14571 fps=377 q=-0.0 size=N/A time=00:10:07.73 bitrate=N/A speed=15.7x    frame=14767 fps=377 q=-0.0 size=N/A time=00:10:15.90 bitrate=N/A speed=15.7x    frame=14975 fps=377 q=-0.0 size=N/A time=00:10:24.58 bitrate=N/A speed=15.7x    frame=15150 fps=376 q=-0.0 size=N/A time=00:10:31.88 bitrate=N/A speed=15.7x    frame=15340 fps=376 q=-0.0 size=N/A time=00:10:39.80 bitrate=N/A speed=15.7x    frame=15540 fps=377 q=-0.0 size=N/A time=00:10:48.14 bitrate=N/A speed=15.7x    frame=15749 fps=377 q=-0.0 size=N/A time=00:10:56.86 bitrate=N/A speed=15.7x    frame=15952 fps=377 q=-0.0 size=N/A time=00:11:05.33 bitrate=N/A speed=15.7x    frame=16150 fps=377 q=-0.0 size=N/A time=00:11:13.58 bitrate=N/A speed=15.7x    frame=16359 fps=378 q=-0.0 size=N/A time=00:11:22.30 bitrate=N/A speed=15.7x    frame=16561 fps=378 q=-0.0 size=N/A time=00:11:30.73 bitrate=N/A speed=15.7x    frame=16764 fps=378 q=-0.0 size=N/A time=00:11:39.19 bitrate=N/A speed=15.8x    frame=16966 fps=378 q=-0.0 size=N/A time=00:11:47.62 bitrate=N/A speed=15.8x    frame=17175 fps=378 q=-0.0 size=N/A time=00:11:56.34 bitrate=N/A speed=15.8x    frame=17384 fps=379 q=-0.0 size=N/A time=00:12:05.05 bitrate=N/A speed=15.8x    frame=17584 fps=379 q=-0.0 size=N/A time=00:12:13.39 bitrate=N/A speed=15.8x    frame=17783 fps=379 q=-0.0 size=N/A time=00:12:21.69 bitrate=N/A speed=15.8x    frame=17980 fps=379 q=-0.0 size=N/A time=00:12:29.91 bitrate=N/A speed=15.8x    frame=18187 fps=379 q=-0.0 size=N/A time=00:12:38.54 bitrate=N/A speed=15.8x    frame=18374 fps=379 q=-0.0 size=N/A time=00:12:46.34 bitrate=N/A speed=15.8x    frame=18581 fps=379 q=-0.0 size=N/A time=00:12:54.98 bitrate=N/A speed=15.8x    frame=18787 fps=379 q=-0.0 size=N/A time=00:13:03.57 bitrate=N/A speed=15.8x    frame=18997 fps=380 q=-0.0 size=N/A time=00:13:12.33 bitrate=N/A speed=15.8x    frame=19197 fps=380 q=-0.0 size=N/A time=00:13:20.67 bitrate=N/A speed=15.8x    frame=19399 fps=380 q=-0.0 size=N/A time=00:13:29.09 bitrate=N/A speed=15.8x    frame=19605 fps=380 q=-0.0 size=N/A time=00:13:37.69 bitrate=N/A speed=15.9x    frame=19813 fps=380 q=-0.0 size=N/A time=00:13:46.36 bitrate=N/A speed=15.9x    frame=20026 fps=380 q=-0.0 size=N/A time=00:13:55.25 bitrate=N/A speed=15.9x    frame=20224 fps=381 q=-0.0 size=N/A time=00:14:03.50 bitrate=N/A speed=15.9x    frame=20426 fps=381 q=-0.0 size=N/A time=00:14:11.93 bitrate=N/A speed=15.9x    frame=20620 fps=381 q=-0.0 size=N/A time=00:14:20.02 bitrate=N/A speed=15.9x    frame=20825 fps=381 q=-0.0 size=N/A time=00:14:28.57 bitrate=N/A speed=15.9x    frame=21024 fps=381 q=-0.0 size=N/A time=00:14:36.87 bitrate=N/A speed=15.9x    frame=21234 fps=381 q=-0.0 size=N/A time=00:14:45.63 bitrate=N/A speed=15.9x    frame=21440 fps=381 q=-0.0 size=N/A time=00:14:54.22 bitrate=N/A speed=15.9x    frame=21653 fps=381 q=-0.0 size=N/A time=00:15:03.11 bitrate=N/A speed=15.9x    frame=21855 fps=381 q=-0.0 size=N/A time=00:15:11.53 bitrate=N/A speed=15.9x    frame=22062 fps=382 q=-0.0 size=N/A time=00:15:20.16 bitrate=N/A speed=15.9x    frame=22264 fps=382 q=-0.0 size=N/A time=00:15:28.59 bitrate=N/A speed=15.9x    frame=22475 fps=382 q=-0.0 size=N/A time=00:15:37.39 bitrate=N/A speed=15.9x    frame=22681 fps=382 q=-0.0 size=N/A time=00:15:45.98 bitrate=N/A speed=15.9x    frame=22872 fps=382 q=-0.0 size=N/A time=00:15:53.95 bitrate=N/A speed=15.9x    frame=23080 fps=382 q=-0.0 size=N/A time=00:16:02.62 bitrate=N/A speed=15.9x    frame=23288 fps=382 q=-0.0 size=N/A time=00:16:11.30 bitrate=N/A speed=15.9x    frame=23494 fps=382 q=-0.0 size=N/A time=00:16:19.89 bitrate=N/A speed=15.9x    frame=23706 fps=383 q=-0.0 size=N/A time=00:16:28.73 bitrate=N/A speed=  16x    frame=23906 fps=383 q=-0.0 size=N/A time=00:16:37.07 bitrate=N/A speed=  16x    frame=24114 fps=383 q=-0.0 size=N/A time=00:16:45.75 bitrate=N/A speed=  16x    frame=24312 fps=383 q=-0.0 size=N/A time=00:16:54.01 bitrate=N/A speed=  16x    frame=24519 fps=383 q=-0.0 size=N/A time=00:17:02.64 bitrate=N/A speed=  16x    frame=24724 fps=383 q=-0.0 size=N/A time=00:17:11.19 bitrate=N/A speed=  16x    frame=24930 fps=383 q=-0.0 size=N/A time=00:17:19.78 bitrate=N/A speed=  16x    frame=25134 fps=383 q=-0.0 size=N/A time=00:17:28.29 bitrate=N/A speed=  16x    frame=25345 fps=384 q=-0.0 size=N/A time=00:17:37.09 bitrate=N/A speed=  16x    frame=25543 fps=384 q=-0.0 size=N/A time=00:17:45.35 bitrate=N/A speed=  16x    frame=25750 fps=384 q=-0.0 size=N/A time=00:17:53.98 bitrate=N/A speed=  16x    frame=25956 fps=384 q=-0.0 size=N/A time=00:18:02.58 bitrate=N/A speed=  16x    frame=26160 fps=384 q=-0.0 size=N/A time=00:18:11.09 bitrate=N/A speed=  16x    frame=26370 fps=384 q=-0.0 size=N/A time=00:18:19.84 bitrate=N/A speed=  16x    frame=26577 fps=384 q=-0.0 size=N/A time=00:18:28.48 bitrate=N/A speed=  16x    frame=26784 fps=384 q=-0.0 size=N/A time=00:18:37.11 bitrate=N/A speed=  16x    frame=26977 fps=384 q=-0.0 size=N/A time=00:18:45.16 bitrate=N/A speed=  16x    frame=27163 fps=384 q=-0.0 size=N/A time=00:18:52.92 bitrate=N/A speed=  16x    frame=27365 fps=384 q=-0.0 size=N/A time=00:19:01.34 bitrate=N/A speed=  16x    frame=27565 fps=384 q=-0.0 size=N/A time=00:19:09.69 bitrate=N/A speed=  16x    frame=27767 fps=384 q=-0.0 size=N/A time=00:19:18.11 bitrate=N/A speed=  16x    frame=27968 fps=384 q=-0.0 size=N/A time=00:19:26.49 bitrate=N/A speed=  16x    frame=28174 fps=384 q=-0.0 size=N/A time=00:19:35.09 bitrate=N/A speed=  16x    frame=28376 fps=384 q=-0.0 size=N/A time=00:19:43.51 bitrate=N/A speed=  16x    frame=28578 fps=385 q=-0.0 size=N/A time=00:19:51.94 bitrate=N/A speed=  16x    frame=28766 fps=384 q=-0.0 size=N/A time=00:19:59.78 bitrate=N/A speed=  16x    frame=28951 fps=384 q=-0.0 size=N/A time=00:20:07.49 bitrate=N/A speed=  16x    frame=29137 fps=384 q=-0.0 size=N/A time=00:20:15.25 bitrate=N/A speed=  16x    frame=29337 fps=384 q=-0.0 size=N/A time=00:20:23.59 bitrate=N/A speed=  16x    frame=29516 fps=384 q=-0.0 size=N/A time=00:20:31.06 bitrate=N/A speed=  16x    frame=29704 fps=384 q=-0.0 size=N/A time=00:20:38.90 bitrate=N/A speed=  16x    frame=29887 fps=383 q=-0.0 size=N/A time=00:20:46.53 bitrate=N/A speed=  16x    frame=30052 fps=383 q=-0.0 size=N/A time=00:20:53.41 bitrate=N/A speed=  16x    frame=30254 fps=383 q=-0.0 size=N/A time=00:21:01.84 bitrate=N/A speed=  16x    frame=30455 fps=383 q=-0.0 size=N/A time=00:21:10.22 bitrate=N/A speed=  16x    frame=30655 fps=383 q=-0.0 size=N/A time=00:21:18.56 bitrate=N/A speed=  16x    frame=30858 fps=383 q=-0.0 size=N/A time=00:21:27.03 bitrate=N/A speed=  16x    frame=31060 fps=383 q=-0.0 size=N/A time=00:21:35.46 bitrate=N/A speed=  16x    frame=31264 fps=383 q=-0.0 size=N/A time=00:21:43.96 bitrate=N/A speed=  16x    frame=31465 fps=383 q=-0.0 size=N/A time=00:21:52.35 bitrate=N/A speed=  16x    frame=31661 fps=383 q=-0.0 size=N/A time=00:22:00.52 bitrate=N/A speed=  16x    frame=31857 fps=383 q=-0.0 size=N/A time=00:22:08.70 bitrate=N/A speed=  16x    frame=32041 fps=383 q=-0.0 size=N/A time=00:22:16.37 bitrate=N/A speed=  16x    frame=32249 fps=383 q=-0.0 size=N/A time=00:22:25.05 bitrate=N/A speed=  16x    frame=32450 fps=383 q=-0.0 size=N/A time=00:22:33.43 bitrate=N/A speed=  16x    frame=32641 fps=383 q=-0.0 size=N/A time=00:22:41.40 bitrate=N/A speed=  16x    frame=32792 fps=383 q=-0.0 size=N/A time=00:22:47.69 bitrate=N/A speed=  16x    frame=32968 fps=383 q=-0.0 size=N/A time=00:22:55.04 bitrate=N/A speed=  16x    frame=33156 fps=382 q=-0.0 size=N/A time=00:23:02.88 bitrate=N/A speed=15.9x    frame=33338 fps=382 q=-0.0 size=N/A time=00:23:10.47 bitrate=N/A speed=15.9x    frame=33505 fps=382 q=-0.0 size=N/A time=00:23:17.43 bitrate=N/A speed=15.9x    frame=33661 fps=381 q=-0.0 size=N/A time=00:23:23.94 bitrate=N/A speed=15.9x    frame=33803 fps=381 q=-0.0 size=N/A time=00:23:29.86 bitrate=N/A speed=15.9x    frame=33943 fps=380 q=-0.0 size=N/A time=00:23:35.70 bitrate=N/A speed=15.9x    frame=34115 fps=380 q=-0.0 size=N/A time=00:23:42.87 bitrate=N/A speed=15.8x    frame=34272 fps=379 q=-0.0 size=N/A time=00:23:49.42 bitrate=N/A speed=15.8x    frame=34405 fps=379 q=-0.0 size=N/A time=00:23:54.97 bitrate=N/A speed=15.8x    frame=34583 fps=379 q=-0.0 size=N/A time=00:24:02.39 bitrate=N/A speed=15.8x    [Parsed_psnr_16 @ 000001c584f8ae80] PSNR y:48.952391 u:50.331702 v:50.380720 average:49.371835 min:38.002599 max:inf
[out#0/null @ 000001c5f7a83a00] video:14903KiB audio:271276KiB subtitle:0KiB other streams:0KiB global headers:0KiB muxing overhead: unknown
frame=34683 fps=379 q=-0.0 Lsize=N/A time=00:24:06.57 bitrate=N/A speed=15.8x    
